<svg width="219" height="39" viewBox="0 0 219 39" fill="none" xmlns="http://www.w3.org/2000/svg">
<g clip-path="url(#clip0_3908_633)">
<path d="M38.7676 -0.148438H-0.199219V38.7495H38.7676V-0.148438Z" fill="white"/>
<path d="M-0.199219 38.7495V-0.148438H38.8514L-0.199219 38.7495Z" fill="white"/>
<path d="M70.4493 24.7848C70.1979 24.7848 70.0303 24.7011 69.9465 24.6175C69.8627 24.5338 69.6113 24.2829 68.8571 23.2791L66.5107 19.933C68.1867 19.2638 69.1085 18.0926 69.1085 16.336C69.1085 14.0774 67.6001 12.9062 64.7509 12.9062L62.4045 12.9899H58.9688V14.0774H59.3877C60.3095 14.161 60.4771 14.2447 60.4771 14.2447C60.4771 14.2447 60.6447 14.412 60.6447 15.4158V23.4463C60.6447 24.4502 60.5609 24.6175 60.4771 24.6175C60.4771 24.6175 60.3095 24.7848 59.3877 24.7848H58.9688V25.8722H64.4995V24.7848H64.0805C63.3263 24.7011 63.1587 24.6175 63.1587 24.6175C63.1587 24.6175 63.0749 24.4502 63.0749 23.4463V14.0774H64.0805C65.0861 14.0774 65.7565 14.2447 66.0917 14.5793C66.4269 14.9139 66.6783 15.5831 66.6783 16.5033C66.6783 18.3436 65.6727 19.2638 63.6615 19.3474H63.4939L67.8515 25.9559H71.7063V24.8684H71.2873C70.7007 24.8684 70.5331 24.8684 70.4493 24.7848Z" fill="white"/>
<path d="M114.523 24.7848C114.272 24.7848 114.104 24.7011 114.021 24.6175C113.937 24.5338 113.685 24.2829 112.931 23.2791L110.585 19.933C112.261 19.2638 113.183 18.0926 113.183 16.336C113.183 14.0774 111.674 12.9062 108.825 12.9062L106.479 12.9899H102.959V14.0774H103.378C104.3 14.161 104.467 14.2447 104.467 14.2447C104.467 14.2447 104.635 14.412 104.635 15.4158V23.4463C104.635 24.4502 104.551 24.6175 104.467 24.6175C104.467 24.6175 104.3 24.7848 103.378 24.7848H102.959V25.8722H108.49V24.7848H108.071C107.317 24.7011 107.149 24.6175 107.149 24.6175C107.149 24.6175 107.065 24.4502 107.065 23.4463V14.0774H108.071C109.076 14.0774 109.747 14.2447 110.082 14.5793C110.417 14.9139 110.669 15.5831 110.669 16.5033C110.669 18.3436 109.663 19.2638 107.652 19.3474H107.484L111.842 25.9559H115.697V24.8684H115.278C114.775 24.8684 114.607 24.8684 114.523 24.7848Z" fill="white"/>
<path d="M183.995 20.8528H179.805L181.9 16.1683L183.995 20.8528ZM188.52 24.7008C188.436 24.6171 188.269 24.3662 187.85 23.446L183.157 12.8223H182.151L177.375 23.3623C176.788 24.5335 176.704 24.7008 176.704 24.7008C176.704 24.7008 176.537 24.7844 175.95 24.7844H175.531V25.8719H179.554V24.7844H179.135C178.548 24.7844 178.297 24.7008 178.297 24.7008C178.297 24.5335 178.38 24.2825 178.716 23.5296L179.386 22.0239H184.749L185.42 23.5296C185.671 24.0316 185.755 24.3662 185.755 24.7008C185.671 24.7008 185.42 24.7844 184.749 24.7844H184.33V25.8719H189.777V24.7844H189.274C188.688 24.7844 188.52 24.7008 188.52 24.7008Z" fill="white"/>
<path d="M198.993 14.0741L199.412 14.1578C200.334 14.2414 200.502 14.3251 200.502 14.3251C200.502 14.3251 200.669 14.4924 200.669 15.4962V18.675H194.887V15.4962C194.887 14.4924 194.971 14.3251 194.971 14.3251C194.971 14.3251 195.139 14.1578 196.06 14.1578H196.479V13.0703H190.697V14.1578L191.116 14.2414C192.038 14.3251 192.206 14.4087 192.206 14.4087C192.206 14.4087 192.373 14.576 192.373 15.5799V23.6104C192.373 24.6142 192.289 24.7815 192.206 24.7815C192.206 24.7815 192.038 24.9488 191.116 24.9488H190.697V26.0363H196.479V24.9488H196.06C195.139 24.8652 194.971 24.7815 194.971 24.7815C194.971 24.7815 194.803 24.6142 194.803 23.6104V20.0134H200.586V23.6104C200.586 24.6142 200.502 24.7815 200.502 24.7815C200.502 24.7815 200.334 24.9488 199.412 24.9488H198.993V26.0363H204.776V24.9488H204.357C203.435 24.8652 203.267 24.7815 203.267 24.7815C203.267 24.7815 203.1 24.6142 203.1 23.6104V15.5799C203.1 14.576 203.183 14.4087 203.183 14.4087C203.183 14.4087 203.351 14.2414 204.273 14.2414H204.692V13.154H198.91V14.0741H198.993Z" fill="white"/>
<path d="M215.836 22.8608V23.2791C215.753 24.2829 215.669 24.4502 215.669 24.4502C215.669 24.4502 215.417 24.5338 213.993 24.5338H212.652C211.814 24.5338 211.563 24.4502 211.479 24.4502C211.479 24.3665 211.395 24.1992 211.395 23.3627V15.3322C211.395 14.3283 211.479 14.161 211.479 14.161C211.479 14.161 211.646 13.9937 212.568 13.9937H212.987V12.9062H207.205V13.9937H207.624C208.546 14.0774 208.713 14.161 208.713 14.161C208.713 14.161 208.881 14.3283 208.881 15.3322V23.3627C208.881 24.3665 208.797 24.5338 208.713 24.5338C208.713 24.5338 208.546 24.7011 207.624 24.7011H207.205V25.7886H217.345V22.7771H215.836V22.8608Z" fill="white"/>
<path d="M50.7546 18.6786V14.0777H50.9222C52.0116 14.0777 52.7658 14.245 53.1848 14.5796C53.6038 14.9142 53.7714 15.4161 53.7714 16.169C53.7714 17.0055 53.52 17.5911 53.101 18.0093C52.682 18.4276 51.9278 18.5949 51.006 18.5949H50.7546V18.6786ZM54.2742 22.6102C54.2742 23.2794 54.0228 23.7813 53.6038 24.1995C53.1848 24.6178 52.5982 24.7851 51.9278 24.7851C51.425 24.7851 51.0898 24.7014 50.8384 24.6178C50.8384 24.5341 50.7546 24.2832 50.7546 23.4467V19.766C53.101 19.8497 54.2742 20.7698 54.2742 22.6102ZM53.939 19.1804C54.5256 18.8458 55.0284 18.5112 55.4474 18.093C55.9502 17.5074 56.2854 16.8382 56.2854 16.0017C56.2854 14.9979 55.9502 14.245 55.196 13.7431C54.5256 13.2412 53.52 12.9902 52.263 12.9902H46.6484V14.0777L47.0674 14.1614C47.9892 14.245 48.1568 14.3287 48.1568 14.3287C48.1568 14.3287 48.3244 14.496 48.3244 15.4998V23.5303C48.3244 24.5341 48.2406 24.7014 48.1568 24.7014C48.1568 24.7014 47.9892 24.8688 47.0674 24.8688H46.6484V25.9562H52.0116C53.6038 25.9562 54.777 25.7053 55.5312 25.1197C56.3692 24.5341 56.7882 23.6976 56.7882 22.5265C56.7882 21.6063 56.453 20.7698 55.7826 20.1843C55.2798 19.6824 54.6932 19.3477 53.939 19.1804Z" fill="white"/>
<path d="M153.073 23.5303C152.989 24.3668 152.905 24.5342 152.905 24.5342C152.905 24.5342 152.654 24.6178 151.229 24.6178H149.889C149.051 24.6178 148.799 24.4505 148.799 24.4505C148.799 24.4505 148.632 24.2832 148.632 23.4467V19.766H150.81C151.481 19.766 151.648 19.8497 151.648 19.8497C151.648 19.8497 151.732 19.9333 151.732 20.4352V20.8535H152.989V17.5911H151.732V18.0093C151.732 18.3439 151.648 18.5112 151.648 18.5949C151.565 18.5949 151.397 18.6786 150.81 18.6786H148.632V14.245H151.229C151.984 14.245 152.319 14.245 152.486 14.245C152.486 14.3287 152.57 14.6633 152.57 15.3325L152.654 15.7507H154.162V12.9902H144.525V14.0777L144.944 14.1614C145.866 14.245 146.034 14.3287 146.034 14.3287C146.034 14.3287 146.201 14.496 146.201 15.4998V23.5303C146.201 24.5341 146.118 24.7014 146.034 24.7014C146.034 24.7014 145.866 24.8688 144.944 24.8688H144.525V25.9562H154.665V23.1121H153.157L153.073 23.5303Z" fill="white"/>
<path d="M165.733 23.5303V14.1614H166.823C168.75 14.1614 170.175 14.5796 171.013 15.4161C171.851 16.2526 172.27 17.5911 172.27 19.5151C172.27 21.3554 171.85 22.6938 171.096 23.614C170.342 24.5342 169.085 24.9524 167.493 24.9524C166.404 24.9524 165.985 24.7851 165.817 24.7014C165.817 24.5341 165.733 24.3668 165.733 23.5303ZM173.108 14.5796C171.934 13.4921 170.258 12.9902 168.163 12.9902H166.152H161.627V14.0777L162.046 14.1614C162.968 14.245 163.135 14.3287 163.135 14.3287C163.135 14.3287 163.303 14.496 163.303 15.4998V23.5303C163.303 24.5341 163.219 24.7014 163.135 24.7014C163.135 24.7014 162.968 24.8688 162.046 24.8688H161.627V25.9562H168.247C170.258 25.9562 171.934 25.3707 173.108 24.1159C174.281 22.9448 174.867 21.2717 174.867 19.1804C174.867 17.1728 174.281 15.6671 173.108 14.5796Z" fill="white"/>
<path d="M125.668 23.53C125.585 24.4502 125.501 24.5338 125.501 24.5338C125.501 24.5338 125.249 24.6175 123.825 24.6175H122.4C121.562 24.6175 121.311 24.4502 121.311 24.4502C121.311 24.4502 121.143 24.2829 121.143 23.4463V19.7657H123.322C123.992 19.7657 124.16 19.8493 124.16 19.8493C124.16 19.8493 124.244 19.933 124.244 20.3513V20.7695H125.501V17.5071H124.244V17.9253C124.244 18.2599 124.16 18.4273 124.16 18.5109C124.076 18.5109 123.909 18.5946 123.322 18.5946H121.143V14.161H123.741C124.495 14.161 124.83 14.161 124.998 14.161C124.998 14.2447 125.082 14.5793 125.082 15.2485L125.166 15.6668H126.674V12.9062H117.037V13.9937L117.456 14.0774C118.378 14.161 118.546 14.2447 118.546 14.2447C118.546 14.2447 118.713 14.412 118.713 15.4158V23.4463C118.713 24.4502 118.629 24.6175 118.546 24.6175C118.546 24.6175 118.378 24.7848 117.456 24.7848H117.037V25.8722H127.261V23.0281H125.752L125.668 23.53Z" fill="white"/>
<path d="M137.819 14.0741L138.238 14.1578C139.159 14.2414 139.327 14.3251 139.327 14.3251C139.327 14.3251 139.495 14.4924 139.495 15.4962V22.1047L132.539 13.0703H129.104V14.1578L129.523 14.2414C130.444 14.3251 130.612 14.4087 130.612 14.4087C130.612 14.4087 130.696 14.576 130.696 15.5799V23.6104C130.696 24.6142 130.612 24.7815 130.612 24.7815C130.612 24.7815 130.444 24.9488 129.523 24.9488H129.104V26.0363H133.796V24.9488H133.377C132.455 24.8652 132.288 24.7815 132.288 24.7815C132.288 24.7815 132.204 24.6142 132.204 23.6104V16.4164L139.746 26.2036V26.2872H140.835V15.5799C140.835 14.576 140.919 14.4087 140.919 14.4087C140.919 14.4087 141.087 14.2414 142.009 14.2414H142.428V13.154H137.735V14.0741H137.819Z" fill="white"/>
<path d="M92.0671 23.5303V14.1614H93.1565C95.0839 14.1614 96.5085 14.5796 97.3465 15.4161C98.1845 16.2526 98.6035 17.5911 98.6035 19.5151C98.6035 21.3554 98.1845 22.6938 97.4303 23.614C96.6761 24.5342 95.4191 24.9524 93.8269 24.9524C92.7375 24.9524 92.3185 24.7851 92.1509 24.7014C92.1509 24.5341 92.0671 24.3668 92.0671 23.5303ZM99.4415 14.5796C98.2683 13.4921 96.5923 12.9902 94.4973 12.9902H92.4861H87.9609V14.0777L88.3799 14.1614C89.3017 14.245 89.4693 14.3287 89.4693 14.3287C89.4693 14.3287 89.6369 14.496 89.6369 15.4998V23.5303C89.6369 24.5341 89.5531 24.7014 89.4693 24.7014C89.4693 24.7014 89.3017 24.8688 88.3799 24.8688H87.9609V25.9562H94.5811C96.5923 25.9562 98.2683 25.3707 99.4415 24.1159C100.615 22.9448 101.201 21.2717 101.201 19.1804C101.201 17.1728 100.615 15.6671 99.4415 14.5796Z" fill="white"/>
<path d="M76.1467 22.5248C75.8115 21.6883 75.6439 20.6009 75.6439 19.4297C75.6439 17.6731 75.9791 16.251 76.7333 15.3308C77.4037 14.327 78.4093 13.9087 79.5825 13.9087C80.8395 13.9087 81.8451 14.4106 82.5155 15.4145L76.1467 22.5248ZM83.5211 19.5134C83.5211 21.2701 83.1859 22.6922 82.4317 23.696C81.7613 24.6998 80.7557 25.118 79.4987 25.118C78.2417 25.118 77.3199 24.6161 76.6495 23.696L83.0183 16.5856C83.4373 17.4221 83.5211 18.4259 83.5211 19.5134ZM84.9457 12.654L83.7725 13.9924C82.5155 13.1559 81.1747 12.654 79.5825 12.654C77.6551 12.654 76.0629 13.2395 74.8897 14.4943C73.7165 15.6654 73.1299 17.3384 73.1299 19.2624C73.1299 21.2701 73.6327 22.9431 74.6383 24.1142L72.7109 26.2055H74.3869L75.5601 24.9507C76.7333 25.7873 78.0741 26.2055 79.5825 26.2055C81.5937 26.2055 83.1859 25.6199 84.3591 24.3652C85.5323 23.1941 86.1189 21.521 86.1189 19.5134C86.1189 17.5894 85.6161 16 84.6943 14.7453L86.4541 12.5703H84.9457V12.654Z" fill="white"/>
<path d="M21.4173 12.7356C21.4173 14.9105 20.1603 15.9143 18.4005 16.3326C17.8139 16.4163 17.3111 16.4999 16.6407 16.4999H11.8641V9.05494H16.5569C16.7245 9.05494 16.4731 9.05494 16.6407 9.05494H17.1435C19.5737 9.05494 21.4173 9.9751 21.4173 12.7356ZM17.3949 26.5381C17.2273 26.5381 17.0597 26.5381 16.8921 26.6217C16.8083 26.6217 16.6407 26.6217 16.6407 26.6217C16.4731 26.6217 16.7245 26.6217 16.5569 26.6217H11.8641V24.8651V24.1122V22.7738V17.3364C13.3725 17.3364 15.0485 17.3364 16.6407 17.5037H17.1435C20.4117 17.5874 22.2553 18.8421 22.2553 21.7699C22.2553 24.6977 20.3278 26.5381 17.3949 26.5381ZM24.2664 12.15C24.2664 9.80778 22.8418 8.72032 20.9145 8.38571C20.3279 8.21841 19.5737 8.13477 18.8195 8.13477H6.91992V8.97128H7.17134C8.26073 9.05493 8.59593 9.22223 8.84733 9.38954C9.01493 9.64049 9.18252 10.3097 9.18252 11.4808V24.1122C9.18252 25.2833 9.09873 26.0362 8.84733 26.2035C8.67973 26.4544 8.26073 26.6217 7.17134 26.6217H6.91992V27.3746H11.1099H17.2273C21.5011 27.6256 25.1882 24.7814 25.1882 21.1007C25.1882 17.8383 22.4228 16.6672 19.5737 16.5836C21.8362 16.3326 24.2664 14.6596 24.2664 12.15Z" fill="#283447"/>
<path d="M30.1342 21.4347C30.1342 26.2865 27.8716 30.3018 21.419 30.3018L18.2346 30.3854V21.6856V21.5184V12.8186H20.581C20.8324 12.8186 21.1676 12.8186 21.419 12.8186C21.419 12.8186 21.7542 13.4042 21.838 13.4042C26.5308 13.4042 30.1342 15.5791 30.1342 21.4347ZM32.9833 20.5982C32.9833 15.2445 28.7934 12.1494 23.6816 12.233C23.095 12.233 21.838 11.8984 21.838 11.8984H17.229H13.0391V12.6513H13.2905C14.3798 12.7349 14.715 12.9023 14.9664 13.0696C15.134 13.3205 15.3016 13.9897 15.3016 15.1608V19.3434V21.351V21.5184V23.526V27.7086C15.3016 28.8797 15.2178 29.6325 14.9664 29.7998C14.7988 30.0508 14.3798 30.1345 13.2905 30.2181H13.0391V30.971H17.229H21.838C28.2068 31.4729 32.9833 26.9557 32.9833 20.5982Z" fill="#283447"/>
</g>
<defs>
<clipPath id="clip0_3908_633">
<rect width="218.502" height="38.6765" fill="#283447"/>
</clipPath>
</defs>
</svg>
