<svg width="148" height="39" viewBox="0 0 148 39" fill="none" xmlns="http://www.w3.org/2000/svg">
<g clip-path="url(#clip0_3908_613)">
<path d="M89.1824 -0.140625H73.3302C72.8749 -0.140625 72.5059 0.230289 72.5059 0.68783V16.6203C72.5059 17.0778 72.8749 17.4488 73.3302 17.4488H89.1824C89.6379 17.4488 90.0065 17.0778 90.0065 16.6203V0.68783C90.0065 0.230289 89.6379 -0.140625 89.1824 -0.140625Z" fill="#283447"/>
<path d="M108.653 -0.140625H92.8007C92.3452 -0.140625 91.9766 0.230289 91.9766 0.68783V16.6203C91.9766 17.0778 92.3452 17.4488 92.8007 17.4488H108.653C109.109 17.4488 109.477 17.0778 109.477 16.6203V0.68783C109.477 0.230289 109.109 -0.140625 108.653 -0.140625Z" fill="#283447"/>
<path d="M128.103 -0.140625H112.251C111.795 -0.140625 111.426 0.230289 111.426 0.68783V16.6203C111.426 17.0778 111.795 17.4488 112.251 17.4488H128.103C128.558 17.4488 128.927 17.0778 128.927 16.6203V0.68783C128.927 0.230289 128.558 -0.140625 128.103 -0.140625Z" fill="#283447"/>
<path d="M147.409 -0.140625H131.557C131.101 -0.140625 130.732 0.230289 130.732 0.68783V16.6203C130.732 17.0778 131.101 17.4488 131.557 17.4488H147.409C147.864 17.4488 148.233 17.0778 148.233 16.6203V0.68783C148.233 0.230289 147.864 -0.140625 147.409 -0.140625Z" fill="#283447"/>
<path d="M140.731 4.2888C140.725 3.74627 140.879 3.21426 141.175 2.76028C141.47 2.3063 141.894 1.95081 142.391 1.73892C142.888 1.52705 143.436 1.46831 143.966 1.5702C144.496 1.67208 144.985 1.92997 145.369 2.31115C145.753 2.69234 146.016 3.17963 146.124 3.7112C146.232 4.24276 146.181 4.79463 145.977 5.29675C145.772 5.79889 145.423 6.22872 144.975 6.53155C144.527 6.83446 144 6.99681 143.46 6.998C143.103 7.00419 142.748 6.93857 142.417 6.80513C142.084 6.6716 141.783 6.4728 141.529 6.2205C141.275 5.96811 141.072 5.66723 140.936 5.33558C140.798 5.00384 140.729 4.64798 140.731 4.2888ZM143.46 6.5474C143.906 6.55783 144.344 6.43473 144.719 6.19388C145.094 5.95294 145.389 5.60518 145.567 5.19493C145.745 4.78465 145.798 4.33044 145.718 3.89021C145.637 3.44998 145.429 3.04369 145.118 2.72315C144.807 2.4026 144.408 2.18234 143.973 2.09043C143.537 1.99852 143.084 2.03915 142.672 2.20711C142.258 2.37508 141.905 2.66279 141.656 3.03354C141.406 3.40429 141.272 3.84129 141.271 4.2888C141.261 4.58326 141.31 4.87673 141.416 5.15153C141.522 5.42638 141.681 5.67681 141.886 5.88783C142.09 6.09893 142.336 6.26611 142.607 6.37946C142.877 6.49281 143.168 6.54995 143.46 6.5474ZM142.882 5.85273H142.413V2.73655H143.594C144.328 2.73655 144.69 3.00979 144.69 3.62313C144.696 3.73324 144.68 3.84348 144.642 3.94711C144.605 4.05075 144.547 4.1456 144.472 4.22586C144.397 4.30612 144.305 4.37012 144.205 4.41393C144.104 4.45773 143.995 4.48045 143.885 4.48066L144.753 5.85273H144.227L143.409 4.50391H142.867L142.882 5.85273ZM143.46 4.10858C143.857 4.10858 144.213 4.07951 144.213 3.59988C144.213 3.21618 143.865 3.14351 143.539 3.14351H142.897V4.10858H143.46Z" fill="#283447"/>
<path d="M-0.110459 0.75121C-0.114702 0.681581 -0.105119 0.6118 -0.0822765 0.545927C-0.0594338 0.480055 -0.023795 0.419404 0.0225822 0.367503C0.105248 0.277739 0.219251 0.223574 0.340736 0.216351H11.3921C11.4655 0.210637 11.5393 0.221209 11.6083 0.247329C11.6773 0.27345 11.7398 0.314474 11.7912 0.367503C11.8848 0.480445 11.9323 0.624814 11.9242 0.771557V3.64063C11.9226 3.77888 11.8736 3.91233 11.7854 4.01852C11.7368 4.0783 11.6747 4.12558 11.6043 4.15642C11.5339 4.18725 11.4572 4.20077 11.3805 4.19583H4.35809V7.79453H9.5439C9.67768 7.79097 9.80851 7.83412 9.91412 7.91661C9.96836 7.96494 10.0107 8.0253 10.0378 8.09287C10.0649 8.16052 10.076 8.23351 10.0703 8.30617V11.0793C10.0693 11.2166 10.0224 11.3497 9.93724 11.4571C9.89573 11.5148 9.84082 11.5614 9.7773 11.5928C9.71379 11.6242 9.6436 11.6395 9.57283 11.6374H4.36677V16.954C4.36677 17.2854 4.19033 17.4511 3.83748 17.4511H0.306024C0.246142 17.4491 0.187323 17.4346 0.133278 17.4087C0.0792252 17.3826 0.0311272 17.3457 -0.00800404 17.3001C-0.0471269 17.2544 -0.076431 17.2012 -0.0940692 17.1436C-0.111699 17.0861 -0.117283 17.0255 -0.110459 16.9657V0.75121Z" fill="#283447"/>
<path d="M15.1235 0.719387C15.1208 0.585565 15.1707 0.456048 15.2624 0.358935C15.3114 0.307593 15.3709 0.26751 15.4368 0.241424C15.5027 0.215329 15.5734 0.203858 15.6441 0.207783H19.0628C19.1945 0.208453 19.3212 0.258167 19.4185 0.347312C19.4727 0.392804 19.5164 0.449699 19.5464 0.513986C19.5764 0.578274 19.5919 0.648385 19.592 0.719387V13.3613H25.955C26.0882 13.3585 26.2171 13.4087 26.3137 13.5008C26.3648 13.5501 26.4047 13.6099 26.4306 13.6761C26.4566 13.7424 26.4679 13.8135 26.4641 13.8845V16.9367C26.4638 17.069 26.4167 17.1968 26.331 17.2972C26.2849 17.3519 26.2272 17.3957 26.1622 17.4254C26.0971 17.455 26.0264 17.4698 25.955 17.4687H15.6326C15.5636 17.4789 15.4932 17.4727 15.4271 17.4508C15.3609 17.4289 15.3007 17.3918 15.2513 17.3424C15.202 17.293 15.1647 17.2327 15.1425 17.1664C15.1203 17.1 15.1138 17.0294 15.1235 16.96V0.719387Z" fill="#283447"/>
<path d="M29.9361 0.727981C29.9334 0.596261 29.9786 0.468084 30.0633 0.367529C30.1113 0.314703 30.1706 0.273611 30.2367 0.247406C30.3029 0.22121 30.3742 0.210596 30.4451 0.216377H33.8406C33.9745 0.223194 34.103 0.271983 34.2079 0.355906C34.2699 0.395556 34.3206 0.45068 34.3551 0.515891C34.3896 0.581094 34.4066 0.654173 34.4046 0.727981V16.9424C34.4046 17.2825 34.2166 17.4512 33.8262 17.4512H30.4451C30.3761 17.4613 30.3058 17.4551 30.2397 17.4333C30.1734 17.4113 30.1133 17.3742 30.0639 17.3248C30.0144 17.2755 29.9771 17.2152 29.955 17.1488C29.9328 17.0825 29.9263 17.0118 29.9361 16.9424V0.727981Z" fill="#283447"/>
<path d="M40.7455 11.8817C40.8785 11.9902 41.0463 12.1356 41.2488 12.3178C41.4704 12.5118 41.7043 12.6914 41.9487 12.8555C42.31 13.1041 42.6981 13.3108 43.1056 13.4718C43.4929 13.6184 43.9035 13.6933 44.3174 13.6927C44.6521 13.7 44.9858 13.6549 45.3066 13.5589C45.539 13.4881 45.7532 13.367 45.9342 13.2043C46.0835 13.0641 46.1966 12.8895 46.264 12.6956C46.3308 12.4972 46.364 12.2889 46.3623 12.0794C46.3619 11.9595 46.3377 11.8409 46.2909 11.7305C46.2443 11.6202 46.1761 11.5204 46.0904 11.4369C45.8954 11.2368 45.6722 11.0664 45.4281 10.9311C45.164 10.7857 44.8894 10.6603 44.6067 10.5562C44.3174 10.4516 44.0745 10.3643 43.8662 10.2945C43.0327 10.0081 42.2224 9.65718 41.4425 9.24516C40.8075 8.91308 40.2231 8.49114 39.7072 7.9923C39.2601 7.55883 38.9072 7.03702 38.6708 6.45968C38.4343 5.88234 38.3194 5.26201 38.3334 4.63783C38.3244 3.95973 38.473 3.28889 38.7672 2.67861C39.0546 2.07913 39.4775 1.55552 40.0022 1.1496C40.5815 0.708624 41.2378 0.380327 41.9371 0.181615C42.7584 -0.056841 43.6101 -0.172411 44.465 -0.161389C45.147 -0.165188 45.8268 -0.0851398 46.4895 0.0769734C47.1517 0.252338 47.7878 0.515286 48.381 0.858919C48.6414 1.01298 48.8901 1.17285 49.1244 1.33854C49.3587 1.50423 49.5669 1.66702 49.7433 1.82109C49.899 1.95322 50.0405 2.1013 50.1656 2.26292C50.2535 2.36283 50.3081 2.48783 50.3217 2.62047C50.3244 2.72254 50.2983 2.82328 50.2466 2.91116C50.1811 3.01531 50.1055 3.11268 50.021 3.20184L48.2451 5.06804C48.145 5.18342 48.0036 5.25447 47.8518 5.26574C47.7483 5.26447 47.6476 5.23209 47.5626 5.17266C47.4758 5.11162 47.3775 5.0332 47.2733 4.94011L47.1692 4.84712C47.016 4.71631 46.8453 4.57969 46.6573 4.44016C46.465 4.2952 46.2608 4.16684 46.047 4.05646C45.8301 3.93815 45.6025 3.84081 45.3674 3.76577C45.1314 3.69177 44.8856 3.65452 44.6385 3.65531C44.3979 3.65366 44.1577 3.67507 43.9212 3.71926C43.7188 3.75558 43.5235 3.82428 43.3427 3.92274C43.181 4.00987 43.0423 4.13442 42.9378 4.2861C42.8336 4.45082 42.7812 4.64329 42.7874 4.8384C42.783 5.03854 42.8395 5.23531 42.9494 5.40232C43.0791 5.58112 43.2446 5.73067 43.4353 5.8413C43.6886 5.99636 43.9571 6.12497 44.2365 6.22501C44.5575 6.34709 44.9277 6.47494 45.3529 6.61448C46.1685 6.88382 46.9205 7.16876 47.6089 7.46913C48.2491 7.73669 48.8496 8.09183 49.3934 8.52429C49.8839 8.91791 50.2834 9.41378 50.5648 9.97773C50.8639 10.62 51.0085 11.324 50.987 12.0328C51 12.8387 50.8215 13.6358 50.4664 14.3583C50.1262 15.0465 49.6394 15.6509 49.0405 16.1287C48.4055 16.6336 47.6841 17.0178 46.9118 17.2623C46.0597 17.5327 45.1706 17.667 44.2769 17.6605C43.3879 17.6598 42.5061 17.4983 41.6739 17.1838C40.8226 16.8685 40.0179 16.4383 39.282 15.9048C39.0051 15.7045 38.7449 15.4819 38.504 15.2392C38.2919 15.024 38.1242 14.8496 38.0008 14.7159L37.966 14.681C37.9606 14.6697 37.9527 14.6598 37.9429 14.652C37.9339 14.6481 37.9259 14.6421 37.9198 14.6345C37.9198 14.6199 37.9053 14.6083 37.8967 14.6054C37.8876 14.6015 37.8797 14.5956 37.8735 14.588C37.7354 14.4673 37.6417 14.3035 37.6074 14.1229C37.6202 14.0351 37.6504 13.9509 37.6961 13.875C37.7418 13.7991 37.8021 13.7332 37.8735 13.681L39.872 11.7654C39.9834 11.6699 40.1201 11.6093 40.2654 11.5911C40.3436 11.5938 40.4196 11.6179 40.4852 11.6608C40.5775 11.7276 40.6645 11.8015 40.7455 11.8817Z" fill="#283447"/>
<path d="M54.4939 0.750661C54.486 0.608352 54.5337 0.468578 54.6269 0.361147C54.6752 0.311526 54.7335 0.272885 54.7978 0.247816C54.8622 0.222738 54.9311 0.211827 55 0.215803H66.4707C66.5433 0.211335 66.6159 0.222509 66.6837 0.248578C66.7515 0.274648 66.813 0.315011 66.8641 0.366954C66.9587 0.479472 67.0073 0.623884 67 0.771008V3.64008C66.9994 3.77801 66.9514 3.9115 66.8641 4.01797C66.8155 4.07776 66.7534 4.12503 66.683 4.15587C66.6125 4.18671 66.5358 4.20022 66.4592 4.19528H58.9508V7.07599H64.7354C64.8648 7.07149 64.9923 7.10812 65.0998 7.1806C65.1502 7.22206 65.1897 7.27522 65.2149 7.33558C65.24 7.39586 65.2502 7.46139 65.2444 7.52658V10.0352C65.2404 10.1517 65.1953 10.263 65.1172 10.3491C65.0705 10.4003 65.013 10.4405 64.949 10.4666C64.885 10.4927 64.816 10.5043 64.747 10.5003H58.9508V13.4711H66.7137C66.7849 13.4617 66.8573 13.469 66.9252 13.4926C66.9931 13.5162 67.0546 13.5553 67.1049 13.607C67.1551 13.6586 67.1927 13.7213 67.2146 13.79C67.2366 13.8587 67.2424 13.9317 67.2314 14.003V16.9099C67.2309 16.9493 67.2224 16.9881 67.2065 17.0241C67.1906 17.0601 67.1676 17.0924 67.1389 17.1192C67.1099 17.3343 66.9509 17.4418 66.6674 17.4418H55C54.8667 17.4486 54.7357 17.405 54.6327 17.3198C54.5835 17.2714 54.5454 17.2128 54.5214 17.1479C54.4974 17.0831 54.488 17.0137 54.4939 16.9448V0.750661Z" fill="#283447"/>
<path d="M-0.220627 22.0085C-0.223394 21.8757 -0.175836 21.7469 -0.0875777 21.648C-0.0403318 21.5967 0.0176186 21.5566 0.0821231 21.5304C0.146628 21.5043 0.216084 21.4929 0.285523 21.4969H3.6955C3.82863 21.5033 3.95627 21.5521 4.05992 21.6364C4.11971 21.6777 4.16824 21.7334 4.20108 21.7983C4.23392 21.8634 4.25003 21.9356 4.24792 22.0085V28.3338C5.09052 27.2486 5.91484 26.1827 6.72083 25.1362L9.1792 21.9387C9.2644 21.809 9.37693 21.6998 9.50894 21.6189C9.62847 21.5425 9.76647 21.5003 9.9081 21.4969H14.2956C14.4884 21.4969 14.5849 21.555 14.5849 21.6713C14.5758 21.7797 14.531 21.882 14.4576 21.962L9.02011 29.168L15.0361 38.2694C15.1054 38.3609 15.1494 38.4692 15.1633 38.5834C15.1633 38.6997 15.0766 38.7577 14.9088 38.7577H10.5328C10.3955 38.7553 10.2614 38.7151 10.1452 38.6415C10.0169 38.5624 9.90818 38.4551 9.82712 38.3276C9.41927 37.7695 9.04905 37.2375 8.71358 36.7259C8.37811 36.2143 8.05124 35.7056 7.73601 35.1998L6.77861 33.6621C6.4547 33.1418 6.10185 32.5982 5.7172 32.0255L4.24792 33.7056V38.2316C4.24792 38.5717 4.06571 38.7433 3.6955 38.7433H0.297088C0.227446 38.7538 0.15632 38.7479 0.0893352 38.726C0.0223423 38.7043 -0.03867 38.667 -0.0888852 38.6174C-0.1391 38.5678 -0.177152 38.5071 -0.200012 38.4401C-0.22288 38.3732 -0.229932 38.3018 -0.220627 38.2316V22.0085Z" fill="#283447"/>
<path d="M16.0782 30.1343C16.073 28.5584 16.4875 27.0097 17.2785 25.649C17.6618 24.9912 18.1263 24.3846 18.661 23.8438C19.1918 23.304 19.792 22.8376 20.4455 22.4573C21.108 22.0706 21.8164 21.7698 22.5539 21.562C24.0909 21.1356 25.714 21.1356 27.251 21.562C27.9919 21.7681 28.7034 22.069 29.3681 22.4573C30.6867 23.2277 31.7831 24.3296 32.5496 25.6548C32.9323 26.3223 33.2305 27.0352 33.4375 27.7768C33.8617 29.3226 33.8617 30.9548 33.4375 32.5005C33.2321 33.2399 32.9337 33.9501 32.5496 34.6138C32.1684 35.2677 31.7036 35.8687 31.1671 36.4015C30.6306 36.9374 30.0291 37.4032 29.3768 37.788C28.0235 38.5844 26.4837 39.0041 24.9155 39.0041C23.3474 39.0041 21.8075 38.5844 20.4542 37.788C19.8032 37.4039 19.2035 36.938 18.6697 36.4015C18.1366 35.8657 17.6722 35.2652 17.2871 34.6138C16.8995 33.9519 16.6009 33.2413 16.3992 32.5005C16.1855 31.7301 16.0775 30.934 16.0782 30.1343ZM20.5468 30.1343C20.5414 30.7492 20.6513 31.3596 20.8707 31.9337C21.0763 32.4723 21.3837 32.9658 21.7759 33.3871C22.1774 33.8145 22.6629 34.1533 23.2017 34.3821C23.7404 34.6107 24.3206 34.7243 24.9054 34.7155C25.5108 34.7233 26.111 34.6025 26.6667 34.3609C27.1882 34.1331 27.6584 33.8019 28.0493 33.3871C28.4415 32.9658 28.7489 32.4723 28.9545 31.9337C29.3864 30.7753 29.3864 29.4991 28.9545 28.3407C28.7501 27.7972 28.4426 27.2987 28.0493 26.8728C27.6475 26.4411 27.1618 26.0969 26.6222 25.8617C26.0827 25.6264 25.5008 25.505 24.9126 25.505C24.3244 25.505 23.7425 25.6264 23.203 25.8617C22.6634 26.0969 22.1777 26.4411 21.7759 26.8728C21.3826 27.2987 21.0751 27.7972 20.8707 28.3407C20.6536 28.9094 20.5438 29.5137 20.5468 30.1227V30.1343Z" fill="#283447"/>
<path d="M37.5302 22.0087C37.5433 21.8739 37.6003 21.7473 37.6922 21.6483C37.7426 21.5962 37.8036 21.5558 37.871 21.5297C37.9384 21.5036 38.0106 21.4925 38.0826 21.4971H42.0797C42.2097 21.4913 42.3374 21.5328 42.4393 21.6139C42.5413 21.6951 42.6108 21.8105 42.635 21.939L45.7761 32.4763L48.9402 21.939C48.9719 21.8099 49.0465 21.6957 49.1518 21.6154C49.2571 21.535 49.3865 21.4932 49.5186 21.4971H53.4695C53.6081 21.4987 53.7415 21.5503 53.8454 21.6424C53.9537 21.7352 54.022 21.8665 54.0363 22.0087C54.3063 24.7334 54.5811 27.4358 54.8606 30.1159C55.1402 32.796 55.416 35.4984 55.6879 38.2231V38.2813C55.6879 38.572 55.5172 38.7348 55.1788 38.7348H51.9105C51.8392 38.7453 51.7664 38.7396 51.6974 38.7183C51.6285 38.6969 51.5651 38.6605 51.512 38.6115C51.4588 38.5626 51.4172 38.5023 51.39 38.4351C51.3629 38.3679 51.351 38.2955 51.3553 38.2231L50.3516 29.2497L47.7486 38.2813C47.7199 38.391 47.6631 38.4913 47.5837 38.572C47.5497 38.6181 47.5063 38.6564 47.4565 38.6845C47.4066 38.7125 47.3514 38.7297 47.2945 38.7348H44.2576C44.1445 38.7223 44.0408 38.666 43.9684 38.5777C43.8803 38.5037 43.8208 38.4008 43.8006 38.2871L41.1976 29.2759L40.194 38.2261C40.1795 38.5661 39.9886 38.7376 39.6155 38.7376H36.3473C36.2791 38.7461 36.2098 38.7385 36.145 38.7155C36.0802 38.6925 36.0215 38.6548 35.9736 38.6053C35.9257 38.5557 35.8899 38.4957 35.8689 38.4299C35.8479 38.3641 35.8424 38.2943 35.8527 38.2261L37.5302 22.0087Z" fill="#283447"/>
<path d="M59.1111 22.0322C59.1028 21.8909 59.1484 21.7516 59.2384 21.6426C59.2871 21.5921 59.3463 21.5529 59.4118 21.5278C59.4773 21.5027 59.5474 21.4923 59.6173 21.4973H66.9983C67.507 21.4933 68.0133 21.5678 68.4994 21.7182C68.9569 21.8591 69.3923 22.0647 69.7923 22.3287C70.1872 22.5879 70.5453 22.8998 70.8566 23.256C71.1677 23.6109 71.4366 24.0012 71.6577 24.4187C71.877 24.836 72.046 25.278 72.161 25.7356C72.3862 26.6435 72.3883 27.593 72.1671 28.502C71.946 29.411 71.5081 30.2523 70.8913 30.9533C70.4225 31.4769 69.8579 31.9052 69.2283 32.2149C68.5585 32.5409 67.8235 32.7089 67.0793 32.7061H63.5768V38.2292C63.5768 38.5606 63.4003 38.7291 63.0446 38.7291H59.6173C59.4839 38.7359 59.3529 38.6924 59.2499 38.607C59.2006 38.5582 59.1626 38.499 59.1386 38.4337C59.1146 38.3684 59.1052 38.2985 59.1111 38.2292V22.0322ZM67.8082 27.1163C67.8073 26.8785 67.7662 26.6426 67.6866 26.4186C67.6095 26.1921 67.4908 25.9822 67.3367 25.7995C67.1805 25.6149 66.9899 25.4628 66.7756 25.3518C66.5459 25.2332 66.2906 25.1733 66.0323 25.1774H63.5768V29.0551H66.0265C66.2858 29.0579 66.5422 29.0002 66.7756 28.8865C66.9897 28.7803 67.1805 28.632 67.3367 28.4505C67.4894 28.2686 67.6072 28.0596 67.6838 27.8342C67.7655 27.6037 67.8076 27.3609 67.8082 27.1163Z" fill="#283447"/>
<path d="M78.8844 21.9497C78.8967 21.8938 78.9225 21.8419 78.9595 21.7985C79.0051 21.7417 79.0576 21.691 79.1158 21.6474C79.1756 21.6011 79.2419 21.5639 79.3124 21.5369C79.375 21.5115 79.4416 21.4977 79.5091 21.4962H82.4652C82.5883 21.4935 82.7073 21.5371 82.8009 21.6183C82.8768 21.6831 82.9468 21.7551 83.0084 21.8334L83.2977 22.4933L89.372 38.2106C89.4032 38.2701 89.4167 38.3376 89.4108 38.4048C89.404 38.4719 89.3787 38.5358 89.3374 38.5886C89.2775 38.6419 89.2083 38.6823 89.1324 38.7073C89.0565 38.7323 88.9764 38.7413 88.8971 38.7339H85.5626C85.4192 38.7412 85.2766 38.7069 85.1518 38.635C85.0447 38.5508 84.9654 38.435 84.9266 38.3036C84.7731 37.9083 84.6229 37.5159 84.4778 37.1409C84.3336 36.7659 84.1885 36.3561 84.0383 35.9608H77.9067C77.7593 36.3561 77.6176 36.7485 77.4614 37.1409C77.3052 37.5333 77.1721 37.9229 77.016 38.3036C76.9821 38.4304 76.9065 38.542 76.8014 38.6202C76.6964 38.6983 76.5682 38.7384 76.4375 38.7339H73.0305C72.8994 38.7378 72.7708 38.6967 72.666 38.6175C72.6205 38.5732 72.5907 38.5151 72.5813 38.4521C72.5719 38.389 72.5834 38.3246 72.6139 38.2688L78.8844 21.9497ZM80.9871 26.9175C80.8395 27.3129 80.6978 27.7373 80.5417 28.1936C80.3855 28.65 80.2524 29.1092 80.0962 29.5743C79.9401 30.0394 79.807 30.4987 79.6537 30.9493C79.5004 31.3999 79.3644 31.8214 79.2083 32.2225H82.7545L80.9871 26.9175Z" fill="#283447"/>
<path d="M91.6993 22.0095C91.6976 21.8778 91.7423 21.7498 91.8266 21.649C91.8747 21.5958 91.9346 21.5544 92.0012 21.5282C92.0679 21.502 92.1404 21.4916 92.2113 21.4979H95.9886C96.1042 21.4992 96.218 21.5271 96.3209 21.5793C96.4433 21.6469 96.5436 21.7477 96.6103 21.87C97.5879 23.4571 98.558 25.02 99.5204 26.5587C100.482 28.0974 101.457 29.6603 102.444 31.2475V21.9455C102.467 21.8188 102.533 21.704 102.63 21.6199C102.719 21.5432 102.833 21.5019 102.95 21.5037H106.242C106.388 21.4979 106.532 21.5453 106.647 21.6374C106.701 21.6837 106.744 21.7419 106.771 21.8074C106.799 21.8729 106.813 21.9441 106.809 22.0153V38.2937C106.814 38.3578 106.803 38.4221 106.779 38.4816C106.755 38.5411 106.717 38.5942 106.67 38.6367C106.559 38.7157 106.424 38.7546 106.288 38.7471H102.624C102.525 38.7482 102.43 38.7107 102.357 38.6425C102.266 38.5548 102.185 38.4573 102.114 38.3518L99.0776 33.3026C98.0772 31.6399 97.0607 29.9568 96.0291 28.2534V38.2239C96.0375 38.3616 95.9962 38.4976 95.9135 38.6076C95.8562 38.6561 95.7895 38.6924 95.7187 38.7143C95.647 38.7363 95.5711 38.7435 95.4968 38.7355H92.2113C92.1404 38.7416 92.0687 38.7318 92.0012 38.7067C91.9346 38.6815 91.8739 38.6418 91.8241 38.5902C91.7423 38.4904 91.6993 38.3646 91.7026 38.2356L91.6993 22.0095Z" fill="#283447"/>
<path d="M110.915 22.0091C110.911 21.8771 110.957 21.7487 111.042 21.6486C111.09 21.5962 111.149 21.5553 111.214 21.5291C111.28 21.5029 111.351 21.4921 111.421 21.4974H114.817C114.952 21.5042 115.081 21.5529 115.187 21.637C115.249 21.6772 115.299 21.7324 115.333 21.7975C115.368 21.8626 115.385 21.9354 115.384 22.0091V38.2234C115.384 38.5636 115.196 38.7351 114.805 38.7351H111.421C111.353 38.7448 111.282 38.7383 111.216 38.716C111.15 38.6937 111.09 38.6562 111.04 38.6066C110.992 38.557 110.954 38.4965 110.933 38.43C110.911 38.3635 110.905 38.2928 110.915 38.2234V22.0091Z" fill="#283447"/>
<path d="M119.398 22.0321C119.39 21.8903 119.437 21.751 119.528 21.6425C119.577 21.5928 119.635 21.5542 119.7 21.5292C119.765 21.5041 119.834 21.4932 119.904 21.4972H131.36C131.432 21.4924 131.505 21.5034 131.573 21.5294C131.641 21.5555 131.702 21.5961 131.753 21.6484C131.849 21.7604 131.899 21.9049 131.892 22.0524V24.9244C131.89 25.0616 131.841 25.194 131.753 25.2993C131.705 25.3595 131.642 25.4072 131.572 25.4386C131.502 25.4699 131.425 25.4839 131.348 25.4796H123.863V28.3574H129.647C129.777 28.3521 129.905 28.3888 130.012 28.462C130.062 28.504 130.102 28.5576 130.127 28.6184C130.153 28.6792 130.163 28.7452 130.157 28.8109V31.3166C130.153 31.4331 130.107 31.5444 130.03 31.6305C129.983 31.6824 129.926 31.723 129.862 31.7492C129.798 31.7754 129.728 31.7865 129.659 31.7817H123.874V34.7525H131.635C131.706 34.7426 131.779 34.7496 131.847 34.7729C131.916 34.7963 131.977 34.8354 132.028 34.887C132.079 34.9387 132.116 35.0016 132.138 35.0706C132.16 35.1396 132.166 35.2128 132.155 35.2845V38.1913C132.154 38.2302 132.146 38.2684 132.13 38.3039C132.114 38.3394 132.091 38.3712 132.062 38.3977C132.03 38.6157 131.874 38.7232 131.588 38.7232H119.901C119.766 38.7299 119.635 38.6864 119.53 38.6012C119.481 38.552 119.444 38.4927 119.421 38.4274C119.397 38.3621 119.388 38.2924 119.394 38.2232L119.398 22.0321Z" fill="#283447"/>
<path d="M134.333 22.0049C134.331 21.9356 134.343 21.8665 134.37 21.8027C134.397 21.7388 134.438 21.6818 134.489 21.6358C134.597 21.543 134.736 21.4934 134.877 21.4962H147.314C147.448 21.4949 147.577 21.5401 147.681 21.6241C147.738 21.6705 147.783 21.7285 147.815 21.7942C147.847 21.8599 147.864 21.9318 147.866 22.0049V24.8885C147.864 25.0338 147.814 25.1742 147.722 25.2867C147.674 25.3498 147.613 25.4003 147.541 25.4337C147.47 25.4671 147.392 25.4826 147.314 25.4786H143.319V38.1874C143.319 38.328 143.265 38.4633 143.169 38.5652C143.12 38.6204 143.06 38.6642 142.993 38.6933C142.925 38.7224 142.852 38.7363 142.779 38.7339H139.392C139.254 38.7306 139.121 38.6745 139.022 38.5769C138.968 38.5281 138.924 38.468 138.894 38.4009C138.865 38.3336 138.85 38.2608 138.851 38.1874V25.4786H134.877C134.733 25.4815 134.594 25.4271 134.489 25.3274C134.434 25.2691 134.392 25.1999 134.366 25.1244C134.339 25.0488 134.328 24.9686 134.333 24.8885V22.0049Z" fill="#283447"/>
</g>
<defs>
<clipPath id="clip0_3908_613">
<rect width="147.997" height="38.6765" fill="white"/>
</clipPath>
</defs>
</svg>
