<?xml version="1.0" encoding="utf-8"?>
<!-- Generator: Adobe Illustrator 26.0.2, SVG Export Plug-In . SVG Version: 6.00 Build 0)  -->
<svg version="1.1" id="Layer_1" xmlns="http://www.w3.org/2000/svg" xmlns:xlink="http://www.w3.org/1999/xlink" x="0px" y="0px"
	 viewBox="285 270 330 45" xml:space="preserve">
<style type="text/css">
	.st0{fill:#FFFFFF;}
</style>
<g>
	<path class="st0" d="M396.1,310.2c-0.3,0-0.5-0.1-0.7-0.2c-0.1-0.1-0.5-0.5-1.5-1.9l-3.4-4.8c2.4-0.9,3.7-2.7,3.7-5.2
		c0-3.2-2.1-4.9-6.3-4.9l-3.3,0.1h-5v1.5l0.6,0.1c1.3,0.1,1.6,0.3,1.6,0.3c0,0,0.2,0.2,0.2,1.7v11.6c0,1.4-0.2,1.7-0.2,1.7
		c0,0-0.2,0.2-1.6,0.3l-0.6,0v1.5h7.9v-1.5l-0.6,0c-1.1-0.1-1.3-0.3-1.3-0.3c0,0-0.2-0.2-0.2-1.7l0-13.5h1.4c1.4,0,2.4,0.3,2.9,0.8
		c0.5,0.5,0.8,1.4,0.8,2.7c0,2.7-1.4,4-4.3,4.1l-0.3,0l6.2,9.4h5.5v-1.5l-0.6,0C396.5,310.2,396.3,310.2,396.1,310.2"/>
	<path class="st0" d="M459.3,310.2c-0.3,0-0.5-0.1-0.7-0.2c-0.1-0.1-0.5-0.5-1.5-1.9l-3.4-4.8c2.4-0.9,3.7-2.7,3.7-5.2
		c0-3.2-2.1-4.9-6.3-4.9l-3.3,0.1h-5v1.5l0.6,0.1c1.3,0.1,1.6,0.3,1.6,0.3c0,0,0.2,0.2,0.2,1.7v11.6c0,1.4-0.2,1.7-0.2,1.7
		c0,0-0.2,0.2-1.6,0.3l-0.6,0v1.5h7.9v-1.5l-0.6,0c-1.1-0.1-1.3-0.3-1.3-0.3c0,0-0.2-0.2-0.2-1.7l0-13.5h1.4c1.4,0,2.4,0.3,2.9,0.8
		c0.5,0.5,0.8,1.4,0.8,2.7c0,2.7-1.4,4-4.3,4.1l-0.3,0l6.2,9.4h5.5v-1.5l-0.6,0C459.7,310.2,459.4,310.2,459.3,310.2"/>
	<path class="st0" d="M558.8,304.5h-6l3-6.7L558.8,304.5z M565.2,310c-0.1-0.1-0.4-0.5-1-1.8l-6.8-15.2H556l-6.8,15.1
		c-0.8,1.7-1,1.9-1,2c0,0-0.2,0.1-1.1,0.2l-0.7,0v1.5h5.7v-1.5h-0.6c-0.9,0-1.2-0.1-1.2-0.2c0-0.2,0.1-0.6,0.6-1.6l1-2.1h7.6l1,2.1
		c0.3,0.7,0.5,1.2,0.5,1.6c-0.1,0-0.4,0.2-1.4,0.2h-0.6v1.5h7.9v-1.5l-0.7,0C565.5,310.2,565.3,310.1,565.2,310"/>
	<path class="st0" d="M580.3,294.7l0.6,0.1c1.4,0.1,1.6,0.3,1.6,0.3c0,0,0.2,0.2,0.2,1.7v4.5h-8.2v-4.5c0-1.4,0.2-1.7,0.2-1.7
		c0,0,0.2-0.2,1.6-0.3l0.6-0.1v-1.5h-8.3v1.5l0.6,0.1c1.3,0.1,1.6,0.3,1.6,0.3c0,0,0.2,0.2,0.2,1.7v11.6c0,1.4-0.2,1.7-0.2,1.7
		c0,0-0.2,0.2-1.6,0.3l-0.6,0v1.5h8.3v-1.5l-0.6,0c-1.4-0.1-1.6-0.3-1.6-0.3c0,0-0.2-0.2-0.2-1.7v-5.2h8.2v5.2
		c0,1.4-0.2,1.7-0.2,1.7c0,0-0.2,0.2-1.6,0.3l-0.6,0v1.5h8.3v-1.5l-0.6,0c-1.4-0.1-1.6-0.3-1.6-0.3c0,0-0.2-0.2-0.2-1.7v-11.6
		c0-1.4,0.2-1.7,0.2-1.7c0,0,0.2-0.2,1.6-0.3l0.6-0.1v-1.5h-8.3V294.7z"/>
	<path class="st0" d="M604.5,307.4l0,0.6c-0.1,1.5-0.3,1.7-0.3,1.7c0,0-0.3,0.2-2.4,0.2h-2c-1.3,0-1.6-0.1-1.7-0.1
		c0-0.1-0.1-0.4-0.1-1.5v-11.6c0-1.4,0.2-1.7,0.2-1.7c0,0,0.2-0.2,1.6-0.3l0.6-0.1v-1.5h-8.3v1.5l0.6,0.1c1.3,0.1,1.6,0.3,1.6,0.3
		c0,0,0.2,0.2,0.2,1.7v11.6c0,1.4-0.2,1.7-0.2,1.7c0,0-0.2,0.2-1.6,0.3l-0.6,0v1.5h14.5v-4.4H604.5z"/>
	<path class="st0" d="M367.8,301.4v-6.6h0.2c1.6,0,2.7,0.2,3.3,0.7c0.6,0.4,0.9,1.2,0.9,2.3c0,1.2-0.3,2.1-1,2.7
		c-0.7,0.6-1.7,0.9-3,0.9H367.8z M373,307c0,1-0.3,1.7-0.9,2.3c-0.6,0.6-1.4,0.9-2.5,0.9c-0.7,0-1.2-0.1-1.6-0.2
		c0-0.1-0.2-0.4-0.2-1.7V303C371.3,303.1,373,304.4,373,307 M372.5,302.1c0.9-0.4,1.6-0.9,2.1-1.5c0.8-0.8,1.2-1.9,1.2-3
		c0-1.4-0.5-2.5-1.5-3.3c-1-0.7-2.4-1.1-4.2-1.1H362v1.5l0.6,0.1c1.3,0.1,1.6,0.3,1.6,0.3c0,0,0.2,0.2,0.2,1.7v11.6
		c0,1.4-0.2,1.7-0.2,1.7c0,0-0.2,0.2-1.6,0.3l-0.6,0v1.5h7.7c2.2,0,3.9-0.4,5.1-1.2c1.2-0.8,1.8-2.1,1.8-3.7c0-1.3-0.5-2.5-1.5-3.4
		C374.4,302.9,373.5,302.4,372.5,302.1"/>
	<path class="st0" d="M514.5,308.3c-0.1,1.2-0.2,1.5-0.2,1.5c0,0-0.4,0.1-2.4,0.1h-2c-1.2,0-1.5-0.2-1.5-0.2c0,0-0.2-0.3-0.2-1.5
		V303h3.1c1,0,1.2,0.1,1.2,0.1c0,0,0.1,0.2,0.1,0.8l0,0.6h1.8v-4.7h-1.8l0,0.6c0,0.5-0.1,0.7-0.1,0.8c-0.1,0-0.4,0.1-1.2,0.1l-3.1,0
		V295h3.7c1.1,0,1.6,0,1.8,0.1c0,0.2,0.1,0.6,0.2,1.5l0.1,0.6h2.2v-3.9h-13.8v1.5l0.6,0.1c1.3,0.1,1.6,0.3,1.6,0.3
		c0,0,0.2,0.2,0.2,1.7v11.6c0,1.4-0.2,1.7-0.2,1.7c0,0-0.2,0.2-1.6,0.3l-0.6,0v1.5h14.5v-4.1h-2.2L514.5,308.3z"/>
	<path class="st0" d="M532.6,308.3v-13.5h1.6c2.8,0,4.8,0.6,6,1.8c1.2,1.2,1.8,3.1,1.8,5.8c0,2.6-0.6,4.6-1.7,5.9
		c-1.1,1.3-2.8,1.9-5.1,1.9c-1.5,0-2.2-0.2-2.4-0.4C532.8,309.8,532.6,309.6,532.6,308.3 M543.2,295.5c-1.7-1.5-4.1-2.3-7.1-2.3
		l-2.9,0.1h-6.5v1.5l0.6,0.1c1.3,0.1,1.6,0.3,1.6,0.3c0,0,0.2,0.2,0.2,1.7v11.6c0,1.4-0.2,1.7-0.2,1.7c0,0-0.2,0.2-1.6,0.3l-0.6,0
		v1.5h9.5c2.9,0,5.2-0.9,6.9-2.6c1.7-1.7,2.6-4.1,2.6-7.1C545.7,299.3,544.8,297,543.2,295.5"/>
	<path class="st0" d="M475.2,308.3c-0.1,1.3-0.2,1.5-0.2,1.5c0,0-0.3,0.1-2.4,0.1h-2c-1.2,0-1.5-0.2-1.5-0.2c0,0-0.2-0.3-0.2-1.4
		V303h3.1c1,0,1.2,0.1,1.2,0.1c0,0,0.1,0.2,0.1,0.8l0,0.6h1.8v-4.7h-1.8l0,0.6c0,0.5-0.1,0.7-0.1,0.8c-0.1,0-0.4,0.1-1.2,0.1l-3.1,0
		V295h3.7c1.1,0,1.6,0,1.8,0.1c0,0.2,0.1,0.6,0.2,1.5l0.1,0.6h2.2v-3.9H463v1.5l0.6,0.1c1.3,0.1,1.6,0.3,1.6,0.3
		c0,0,0.2,0.2,0.2,1.7v11.6c0,1.4-0.2,1.7-0.2,1.7c0,0-0.2,0.2-1.6,0.3l-0.6,0v1.5h14.5v-4.1h-2.2L475.2,308.3z"/>
	<path class="st0" d="M492.7,294.7l0.6,0.1c1.4,0.1,1.6,0.3,1.6,0.3c0,0,0.2,0.2,0.2,1.7v9.5l-9.9-13h-4.9v1.5l0.6,0.1
		c1.4,0.1,1.6,0.3,1.6,0.3c0,0,0.2,0.2,0.2,1.7v11.6c0,1.4-0.2,1.7-0.2,1.7c0,0-0.2,0.2-1.6,0.3l-0.6,0v1.5h6.8v-1.5l-0.6,0
		c-1.4-0.1-1.6-0.3-1.6-0.3c0,0-0.2-0.2-0.2-1.7v-10.4l10.8,14.1l0,0.1h1.6v-15.3c0-1.4,0.2-1.7,0.2-1.7c0,0,0.2-0.2,1.6-0.3
		l0.6-0.1v-1.5h-6.7V294.7z"/>
	<path class="st0" d="M427.1,308.3v-13.5h1.6c2.8,0,4.8,0.6,6,1.8c1.2,1.2,1.8,3.1,1.8,5.8c0,2.6-0.6,4.6-1.7,5.9
		c-1.1,1.3-2.8,1.9-5.1,1.9c-1.5,0-2.2-0.2-2.4-0.4C427.3,309.8,427.1,309.6,427.1,308.3 M437.7,295.5c-1.7-1.5-4.1-2.3-7.1-2.3
		l-2.9,0.1h-6.5v1.5l0.6,0.1c1.3,0.1,1.6,0.3,1.6,0.3c0,0,0.2,0.2,0.2,1.7v11.6c0,1.4-0.2,1.7-0.2,1.7c0,0-0.2,0.2-1.6,0.3l-0.6,0
		v1.5h9.5c2.9,0,5.2-0.9,6.9-2.6c1.7-1.7,2.6-4.1,2.6-7.1C440.2,299.3,439.4,297,437.7,295.5"/>
	<path class="st0" d="M404.3,306.9c-0.5-1.2-0.7-2.7-0.7-4.4c0-2.5,0.5-4.5,1.5-5.9c1-1.4,2.3-2.1,4.1-2.1c1.8,0,3.2,0.7,4.2,2.2
		L404.3,306.9z M414.9,302.5c0,2.6-0.5,4.6-1.5,6c-1,1.4-2.4,2.1-4.2,2.1c-1.8,0-3.1-0.7-4-2.1l9.1-10.2
		C414.7,299.6,414.9,301,414.9,302.5 M416.8,292.8l-1.6,1.9c-1.7-1.2-3.8-1.9-6-1.9c-2.8,0-5,0.9-6.7,2.6c-1.7,1.7-2.5,4.1-2.5,6.9
		c0,2.9,0.7,5.2,2.2,7l-2.7,3h2.4l1.6-1.8c1.7,1.2,3.6,1.8,5.7,1.8c2.8,0,5.1-0.9,6.8-2.6c1.7-1.7,2.6-4.1,2.6-6.9
		c0-2.8-0.7-5.1-2.1-6.9l2.6-3.1H416.8z"/>
</g>
<g>
	<path class="st0" d="M321.6,305.4v0.2v6.6c3.3-0.6,5.2-3,5.2-6.5c0-3.3-1.7-5.1-5.2-5.7V305.4z"/>
	<path class="st0" d="M312.6,299.7L312.6,299.7l0,7.6v1.9v1.1v2.2h4.3v-3.9v-2.9v-0.2v-2.9v-2.8c-1.3-0.1-2.6-0.1-3.9-0.1
		L312.6,299.7z"/>
	<path class="st0" d="M324.6,293.2h-3v4.4c2.5-0.6,3.8-2,4-4.4C325.3,293.2,325,293.2,324.6,293.2z"/>
	<path class="st0" d="M319.9,287.8c-0.1,0-0.6,0-0.8,0l0,0c0,0-0.1,0-0.1,0h-6.4v10h4.3v-1.3c0-2.2-0.3-2.7-0.4-2.8
		c-0.2-0.3-0.7-0.4-2.2-0.5l-0.4,0l-0.3-0.1v-0.3v-1.1v-0.1v-0.3h0.3h6l5.5,0C324.7,288.5,322.1,287.8,319.9,287.8z"/>
	<path class="st0" d="M294.9,274.4v55.8h55.8v-55.8H294.9z M327,319.8c-0.1,0-0.1,0-0.2,0v0l-0.3,0l-6.6,0h-6l-0.3-0.1v-0.3v-1.1
		v-0.1V318l0.3,0l0.4,0c1.5-0.1,2-0.3,2.2-0.5c0.1-0.1,0.4-0.6,0.4-2.8v-0.2l-5.8,0h-6l-0.3,0v-0.3v-1.2v-0.3l0.3,0l0.4,0
		c1.5-0.1,2-0.3,2.2-0.5c0.1-0.1,0.4-0.6,0.4-2.8v-18.1c0-2.2-0.3-2.7-0.4-2.8c-0.2-0.3-0.7-0.4-2.2-0.5l-0.4,0l-0.3,0v-0.3v-1.2
		v-0.3h0.3h17.1c1.1,0,2.2,0.1,3.1,0.4c3.2,0.6,4.9,2.5,5,5.5c7.5,0.3,12.6,5.3,12.6,12.3C342.8,313.2,336.1,319.8,327,319.8z"/>
	<path class="st0" d="M329.7,294.4c-0.8,1.8-2.6,3.3-4.7,4c4.2,0.6,6.6,3,6.6,6.7c0,4.9-4.3,8.8-10,9.3v3.4l4.2-0.1
		c10.1-0.1,12.2-6.8,12.2-12.4C338.1,299.2,335.2,295.4,329.7,294.4z"/>
</g>
</svg>
