<?xml version="1.0" encoding="utf-8"?>
<!-- Generator: Adobe Illustrator 26.0.2, SVG Export Plug-In . SVG Version: 6.00 Build 0)  -->
<svg version="1.1" id="Layer_1" xmlns="http://www.w3.org/2000/svg" xmlns:xlink="http://www.w3.org/1999/xlink" x="0px" y="0px"
	 viewBox="285 270 330 45" xml:space="preserve">
<style type="text/css">
	.st0{fill:#00578D;}
	.st1{fill:url(#SVGID_1_);}
	.st2{fill:#FFFFFF;}
</style>
<rect x="294.9" y="283.7" class="st0" width="46.5" height="46.5"/>
<linearGradient id="SVGID_1_" gradientUnits="userSpaceOnUse" x1="342.7198" y1="286.6971" x2="286.5855" y2="310.5247">
	<stop  offset="0" style="stop-color:#009ED3"/>
	<stop  offset="0.51" style="stop-color:#0066A5"/>
	<stop  offset="0.7985" style="stop-color:#00578D"/>
</linearGradient>
<polygon class="st1" points="294.9,330.2 294.9,283.7 341.5,283.7 "/>
<g>
	<path class="st0" d="M379.2,313.5c-0.3,0-0.5-0.1-0.6-0.2c-0.1-0.1-0.4-0.4-1.3-1.6l-2.8-4c2-0.8,3.1-2.2,3.1-4.3
		c0-2.7-1.8-4.1-5.2-4.1l-2.8,0.1h-4.1v1.3l0.5,0c1.1,0.1,1.3,0.2,1.3,0.2c0,0,0.2,0.2,0.2,1.4v9.6c0,1.2-0.1,1.4-0.2,1.4
		c0,0-0.2,0.2-1.3,0.2l-0.5,0v1.3h6.6v-1.3l-0.5,0c-0.9-0.1-1.1-0.2-1.1-0.2c0,0-0.1-0.2-0.1-1.4l0-11.2h1.2c1.2,0,2,0.2,2.4,0.6
		c0.4,0.4,0.7,1.2,0.7,2.3c0,2.2-1.2,3.3-3.6,3.4l-0.2,0l5.2,7.9h4.6v-1.3l-0.5,0C379.5,313.6,379.3,313.6,379.2,313.5"/>
	<path class="st0" d="M431.8,313.5c-0.3,0-0.5-0.1-0.6-0.2c-0.1-0.1-0.4-0.4-1.3-1.6l-2.8-4c2-0.8,3.1-2.2,3.1-4.3
		c0-2.7-1.8-4.1-5.2-4.1l-2.8,0.1H418v1.3l0.5,0c1.1,0.1,1.3,0.2,1.3,0.2c0,0,0.2,0.2,0.2,1.4v9.6c0,1.2-0.1,1.4-0.2,1.4
		c0,0-0.2,0.2-1.3,0.2l-0.5,0v1.3h6.6v-1.3l-0.5,0c-0.9-0.1-1.1-0.2-1.1-0.2c0,0-0.1-0.2-0.1-1.4l0-11.2h1.2c1.2,0,2,0.2,2.4,0.6
		c0.4,0.4,0.7,1.2,0.7,2.3c0,2.2-1.2,3.3-3.6,3.4l-0.2,0l5.2,7.9h4.6v-1.3l-0.5,0C432.1,313.6,431.9,313.6,431.8,313.5"/>
	<path class="st0" d="M514.7,308.8h-5l2.5-5.6L514.7,308.8z M520.1,313.4c-0.1-0.1-0.3-0.4-0.8-1.5l-5.6-12.7h-1.2l-5.7,12.6
		c-0.7,1.4-0.8,1.6-0.8,1.6c0,0-0.2,0.1-0.9,0.1l-0.5,0v1.3h4.8v-1.3h-0.5c-0.7,0-1-0.1-1-0.1c0-0.2,0.1-0.5,0.5-1.4l0.8-1.8h6.4
		l0.8,1.8c0.3,0.6,0.4,1,0.4,1.4c-0.1,0-0.4,0.1-1.2,0.1h-0.5v1.3h6.5v-1.3l-0.6,0C520.3,313.5,520.1,313.4,520.1,313.4"/>
	<path class="st0" d="M532.6,300.7l0.5,0.1c1.1,0.1,1.3,0.2,1.3,0.2c0,0,0.2,0.2,0.2,1.4v3.8h-6.9v-3.8c0-1.2,0.1-1.4,0.1-1.4
		c0,0,0.2-0.2,1.3-0.2l0.5,0v-1.3h-6.9v1.3l0.5,0.1c1.1,0.1,1.3,0.2,1.3,0.2c0,0,0.2,0.2,0.2,1.4v9.6c0,1.2-0.1,1.4-0.2,1.4
		c0,0-0.2,0.2-1.3,0.2l-0.5,0v1.3h6.9v-1.3l-0.5,0c-1.1-0.1-1.3-0.2-1.3-0.2c0,0-0.2-0.2-0.2-1.4v-4.3h6.9v4.3
		c0,1.2-0.1,1.4-0.1,1.4c0,0-0.2,0.2-1.3,0.2l-0.5,0v1.3h6.9v-1.3l-0.5,0c-1.1-0.1-1.3-0.2-1.3-0.2c0,0-0.2-0.2-0.2-1.4v-9.6
		c0-1.2,0.1-1.4,0.1-1.4c0,0,0.2-0.2,1.3-0.2l0.5,0v-1.3h-6.9V300.7z"/>
	<path class="st0" d="M552.7,311.2l0,0.5c-0.1,1.2-0.2,1.4-0.2,1.4c0,0-0.3,0.1-2,0.1h-1.6c-1,0-1.3-0.1-1.4-0.1
		c0-0.1-0.1-0.3-0.1-1.3v-9.6c0-1.2,0.1-1.4,0.1-1.4c0,0,0.2-0.2,1.3-0.2l0.5,0v-1.3h-6.9v1.3l0.5,0c1.1,0.1,1.3,0.2,1.3,0.2
		c0,0,0.2,0.2,0.2,1.4v9.6c0,1.2-0.1,1.4-0.2,1.4c0,0-0.2,0.2-1.3,0.2l-0.5,0v1.3h12.1v-3.6H552.7z"/>
	<path class="st0" d="M355.7,306.2v-5.5h0.2c1.3,0,2.2,0.2,2.7,0.6c0.5,0.4,0.7,1,0.7,1.9c0,1-0.3,1.7-0.8,2.2
		c-0.5,0.5-1.4,0.7-2.5,0.7H355.7z M359.9,310.9c0,0.8-0.3,1.4-0.8,1.9c-0.5,0.5-1.2,0.7-2,0.7c-0.6,0-1-0.1-1.3-0.2
		c0-0.1-0.1-0.4-0.1-1.4v-4.4C358.5,307.6,359.9,308.7,359.9,310.9 M359.5,306.8c0.7-0.4,1.3-0.8,1.8-1.3c0.6-0.7,1-1.5,1-2.5
		c0-1.2-0.4-2.1-1.3-2.7c-0.8-0.6-2-0.9-3.5-0.9h-6.7v1.3l0.5,0.1c1.1,0.1,1.3,0.2,1.3,0.2c0,0,0.2,0.2,0.2,1.4v9.6
		c0,1.2-0.1,1.4-0.2,1.4c0,0-0.2,0.2-1.3,0.2l-0.5,0v1.3h6.4c1.9,0,3.3-0.3,4.2-1c1-0.7,1.5-1.7,1.5-3.1c0-1.1-0.4-2.1-1.2-2.8
		C361.1,307.4,360.4,307,359.5,306.8"/>
	<path class="st0" d="M477.8,312c-0.1,1-0.2,1.2-0.2,1.2c0,0-0.3,0.1-2,0.1H474c-1,0-1.3-0.2-1.3-0.2c0,0-0.2-0.2-0.2-1.2v-4.4h2.6
		c0.8,0,1,0.1,1,0.1c0,0,0.1,0.1,0.1,0.7l0,0.5h1.5v-3.9h-1.5l0,0.5c0,0.4-0.1,0.6-0.1,0.7c-0.1,0-0.3,0.1-1,0.1l-2.6,0v-5.3h3.1
		c0.9,0,1.3,0,1.5,0c0,0.1,0.1,0.5,0.1,1.3l0.1,0.5h1.8v-3.3h-11.5v1.3l0.5,0.1c1.1,0.1,1.3,0.2,1.3,0.2c0,0,0.2,0.2,0.2,1.4v9.6
		c0,1.2-0.1,1.4-0.2,1.4c0,0-0.2,0.2-1.3,0.2l-0.5,0v1.3h12.1v-3.4h-1.8L477.8,312z"/>
	<path class="st0" d="M492.9,312v-11.2h1.3c2.3,0,4,0.5,5,1.5c1,1,1.5,2.6,1.5,4.9c0,2.2-0.5,3.8-1.4,4.9c-0.9,1.1-2.4,1.6-4.3,1.6
		c-1.3,0-1.8-0.2-2-0.3C493,313.2,492.9,313,492.9,312 M501.7,301.3c-1.4-1.3-3.4-1.9-5.9-1.9l-2.4,0H488v1.3l0.5,0.1
		c1.1,0.1,1.3,0.2,1.3,0.2c0,0,0.2,0.2,0.2,1.4v9.6c0,1.2-0.1,1.4-0.2,1.4c0,0-0.2,0.2-1.3,0.2l-0.5,0v1.3h7.9
		c2.4,0,4.4-0.7,5.8-2.2c1.4-1.4,2.1-3.4,2.1-5.9C503.8,304.4,503.1,302.6,501.7,301.3"/>
	<path class="st0" d="M445.1,312c-0.1,1.1-0.2,1.2-0.2,1.2c0,0-0.3,0.1-2,0.1h-1.7c-1,0-1.3-0.2-1.3-0.2c0,0-0.2-0.2-0.2-1.2v-4.4
		h2.6c0.8,0,1,0.1,1,0.1c0,0,0.1,0.1,0.1,0.6l0,0.5h1.5v-3.9h-1.5l0,0.5c0,0.4-0.1,0.6-0.1,0.7c-0.1,0-0.3,0.1-1,0.1l-2.6,0v-5.3
		h3.1c0.9,0,1.3,0,1.5,0c0,0.1,0.1,0.5,0.1,1.3l0.1,0.5h1.8v-3.3h-11.5v1.3l0.5,0.1c1.1,0.1,1.3,0.2,1.3,0.2c0,0,0.2,0.2,0.2,1.4
		v9.6c0,1.2-0.1,1.4-0.2,1.4c0,0-0.2,0.2-1.3,0.2l-0.5,0v1.3H447v-3.4h-1.8L445.1,312z"/>
	<path class="st0" d="M459.6,300.7l0.5,0.1c1.1,0.1,1.3,0.2,1.3,0.2c0,0,0.2,0.2,0.2,1.4v7.9l-8.3-10.8h-4.1v1.3l0.5,0.1
		c1.1,0.1,1.3,0.2,1.3,0.2c0,0,0.1,0.2,0.1,1.4v9.6c0,1.2-0.1,1.4-0.1,1.4c0,0-0.2,0.2-1.3,0.2l-0.5,0v1.3h5.6v-1.3l-0.5,0
		c-1.1-0.1-1.3-0.2-1.3-0.2c0,0-0.1-0.2-0.1-1.4v-8.6l9,11.7l0,0.1h1.3v-12.8c0-1.2,0.1-1.4,0.1-1.4c0,0,0.2-0.2,1.3-0.2l0.5,0v-1.3
		h-5.6V300.7z"/>
	<path class="st0" d="M405,312v-11.2h1.3c2.3,0,4,0.5,5,1.5c1,1,1.5,2.6,1.5,4.9c0,2.2-0.5,3.8-1.4,4.9c-0.9,1.1-2.4,1.6-4.3,1.6
		c-1.3,0-1.8-0.2-2-0.3C405.1,313.2,405,313,405,312 M413.8,301.3c-1.4-1.3-3.4-1.9-5.9-1.9l-2.4,0h-5.4v1.3l0.5,0.1
		c1.1,0.1,1.3,0.2,1.3,0.2c0,0,0.2,0.2,0.2,1.4v9.6c0,1.2-0.1,1.4-0.2,1.4c0,0-0.2,0.2-1.3,0.2l-0.5,0v1.3h7.9
		c2.4,0,4.4-0.7,5.8-2.2c1.4-1.4,2.1-3.4,2.1-5.9C415.9,304.4,415.2,302.6,413.8,301.3"/>
	<path class="st0" d="M386,310.8c-0.4-1-0.6-2.3-0.6-3.7c0-2.1,0.4-3.8,1.3-4.9c0.8-1.2,2-1.7,3.4-1.7c1.5,0,2.7,0.6,3.5,1.8
		L386,310.8z M394.8,307.2c0,2.1-0.4,3.8-1.3,5c-0.8,1.2-2,1.7-3.5,1.7c-1.5,0-2.6-0.6-3.4-1.7l7.6-8.5
		C394.7,304.7,394.8,305.9,394.8,307.2 M396.5,299l-1.4,1.6c-1.5-1-3.1-1.6-5-1.6c-2.3,0-4.2,0.7-5.6,2.2c-1.4,1.4-2.1,3.4-2.1,5.7
		c0,2.4,0.6,4.4,1.8,5.8l-2.3,2.5h2l1.4-1.5c1.4,1,3,1.5,4.8,1.5c2.4,0,4.3-0.7,5.7-2.2c1.4-1.4,2.1-3.4,2.1-5.8
		c0-2.3-0.6-4.2-1.7-5.7l2.1-2.6H396.5z"/>
</g>
<g>
	<g>
		<path class="st2" d="M320.7,299.1c0,2.6-1.5,3.8-3.6,4.3c-0.7,0.1-1.3,0.2-2.1,0.2h-5.7v-8.9h5.6c0.2,0-0.1,0,0.1,0
			c0,0,0.6,0,0.6,0C318.5,294.7,320.7,295.8,320.7,299.1 M315.9,315.6c-0.2,0-0.4,0-0.6,0.1c-0.1,0-0.3,0-0.3,0c-0.2,0,0.1,0-0.1,0
			h-5.6v-2.1v-0.9v-1.6v-6.5c1.8,0,3.8,0,5.7,0.2l0.6,0c3.9,0.1,6.1,1.6,6.1,5.1C321.7,313.4,319.4,315.6,315.9,315.6 M324.1,298.4
			c0-2.8-1.7-4.1-4-4.5c-0.7-0.2-1.6-0.3-2.5-0.3h-14.2v1l0.3,0c1.3,0.1,1.7,0.3,2,0.5c0.2,0.3,0.4,1.1,0.4,2.5v15.1
			c0,1.4-0.1,2.3-0.4,2.5c-0.2,0.3-0.7,0.5-2,0.5l-0.3,0v0v0.9v0h5l7.3,0c5.1,0.3,9.5-3.1,9.5-7.5c0-3.9-3.3-5.3-6.7-5.4
			C321.2,303.4,324.1,301.4,324.1,298.4"/>
		<path class="st2" d="M331.1,309.5c0,5.8-2.7,10.6-10.4,10.6l-3.8,0.1v-10.4v-0.2v-10.4h2.8c0.3,0,0.7,0,1,0c0,0,0.4,0.7,0.5,0.7
			C326.8,299.9,331.1,302.5,331.1,309.5 M334.5,308.5c0-6.4-5-10.1-11.1-10c-0.7,0-2.2-0.4-2.2-0.4l-5.5,0h-5v0v0v0.9v0v0l0.3,0
			c1.3,0.1,1.7,0.3,2,0.5c0.2,0.3,0.4,1.1,0.4,2.5v5v2.4v0.2v2.4v5c0,1.4-0.1,2.3-0.4,2.5c-0.2,0.3-0.7,0.4-2,0.5l-0.3,0v0v0v0.9v0
			v0h5l5.5,0v0C328.8,321.5,334.5,316.1,334.5,308.5"/>
	</g>
</g>
</svg>
